<svg width="164" height="38" viewBox="0 0 164 38" fill="none" xmlns="http://www.w3.org/2000/svg">
<g filter="url(#filter0_dd_1_3)">
<rect x="3.1" y="2.1" width="31.8" height="31.8" rx="7.9" fill="white"/>
<rect x="3.1" y="2.1" width="31.8" height="31.8" rx="7.9" fill="url(#paint0_linear_1_3)"/>
<rect x="3.1" y="2.1" width="31.8" height="31.8" rx="7.9" stroke="#D0D5DD" stroke-width="0.2"/>
<path d="M18.3546 13.1827C22.7105 11.4503 27.4742 12.8184 29.6373 14.9132C30.106 15.3671 30.5041 15.8275 30.845 16.2851C31.0394 15.2107 31.0552 14.1405 30.8681 13.1055C30.1847 9.32646 26.6195 7.18558 23.4233 8.29146C20.2415 9.39237 19.0005 11.5321 19.0005 11.5321C19.0005 11.5321 17.7595 9.39237 14.5777 8.29146C11.3812 7.18558 7.81603 9.32669 7.1328 13.1055C6.62842 15.8944 7.58356 18.9391 9.61033 21.6298C10.0372 21.7732 10.4847 21.8809 10.9586 21.943C13.7978 22.3163 14.8184 21.557 16.0178 21.0486C16.8142 20.7112 17.4134 21.0942 17.3843 21.3626C17.3392 21.7786 15.7693 22.4895 16.106 22.6388C17.4351 23.2284 19.0718 23.2334 20.3053 22.18C21.838 20.8712 22.4114 21.7658 22.4114 21.7658C22.4114 21.7658 21.6502 23.7076 19.3581 24.6717C17.4457 25.4761 15.4419 25.6743 13.6107 25.4683C15.19 26.5846 17.0035 27.5204 19.0005 28.1882C24.7099 26.2784 28.9276 22.1871 30.4145 17.9096C29.4072 16.9157 28.1716 16.2995 26.6988 16.0763C23.8674 15.647 22.8322 16.3862 21.6228 16.8708C20.8198 17.1926 20.2285 16.7978 20.263 16.5299C20.3161 16.1148 21.8999 15.4351 21.5661 15.279C20.249 14.6633 18.6125 14.626 17.3585 15.6548C15.8003 16.9332 15.2446 16.0274 15.2446 16.0274C15.2446 16.0274 16.0438 14.1015 18.3546 13.1827ZM17.2709 18.5051H18.3709V17.4052H19.6296V18.5051H20.7296V19.7639H19.6296V20.8638H18.3709V19.7639H17.2709V18.5051Z" fill="url(#paint1_linear_1_3)"/>
<path d="M17.2709 18.5052H18.3709V17.4052H19.6296V18.5052H20.7296V19.7639H19.6379C21.2597 20.5834 24.2383 21.8027 27.8177 22.3451C28.9956 20.9517 29.8813 19.4428 30.4143 17.9096C29.4069 16.9157 28.1714 16.2996 26.6986 16.0763C23.8672 15.647 22.8319 16.3863 21.6226 16.8708C20.8196 17.1926 20.2283 16.7978 20.2627 16.5299C20.3159 16.1148 21.8997 15.4351 21.5659 15.279C20.2488 14.6633 18.6123 14.626 17.3583 15.6548C15.8 16.9332 15.2444 16.0274 15.2444 16.0274C15.2444 16.0274 16.0438 14.1013 18.3543 13.1823C22.7103 11.4499 27.474 12.818 29.637 14.9128C30.1058 15.3666 30.5038 15.8271 30.8447 16.2847C31.0392 15.2102 31.055 14.14 30.8679 13.105C30.1844 9.326 26.6192 7.18512 23.423 8.291C20.2412 9.39191 19.0002 11.5316 19.0002 11.5316C19.0002 11.5316 17.7592 9.39191 14.5774 8.291C12.752 7.65927 10.8067 8.0883 9.34621 9.27521C10.0323 10.7442 10.836 12.1168 13.1255 14.8773C14.9869 17.1222 17.2709 18.5052 17.2709 18.5052Z" fill="url(#paint2_linear_1_3)"/>
<path opacity="0.31" d="M27.2769 9.64942C24.2711 8.13932 21.169 10.489 20.185 11.7298C21.882 11.3724 23.3668 11.189 25.2457 11.5838C28.0251 12.1678 29.0653 13.1714 30.3063 14.6541C30.0871 11.9068 28.3518 10.1895 27.2769 9.64942Z" fill="url(#paint3_linear_1_3)"/>
</g>
<path d="M46.728 28V10.12H49.848L56.544 19.216H55.056L61.608 10.12H64.728V28H61.44V13.84L62.712 14.152L55.92 23.2H55.536L48.912 14.152L49.992 13.84V28H46.728ZM74.2699 28.288C72.9899 28.288 71.8219 27.992 70.7659 27.4C69.7259 26.808 68.8939 26 68.2699 24.976C67.6619 23.952 67.3579 22.784 67.3579 21.472C67.3579 20.16 67.6619 18.992 68.2699 17.968C68.8939 16.944 69.7259 16.136 70.7659 15.544C71.8059 14.952 72.9739 14.656 74.2699 14.656C75.5499 14.656 76.7099 14.952 77.7499 15.544C78.7899 16.136 79.6139 16.944 80.2219 17.968C80.8459 18.976 81.1579 20.144 81.1579 21.472C81.1579 22.784 80.8459 23.952 80.2219 24.976C79.5979 26 78.7659 26.808 77.7259 27.4C76.6859 27.992 75.5339 28.288 74.2699 28.288ZM74.2699 25.408C74.9739 25.408 75.5899 25.24 76.1179 24.904C76.6619 24.568 77.0859 24.104 77.3899 23.512C77.7099 22.904 77.8699 22.224 77.8699 21.472C77.8699 20.704 77.7099 20.032 77.3899 19.456C77.0859 18.864 76.6619 18.4 76.1179 18.064C75.5899 17.712 74.9739 17.536 74.2699 17.536C73.5499 17.536 72.9179 17.712 72.3739 18.064C71.8299 18.4 71.3979 18.864 71.0779 19.456C70.7739 20.032 70.6219 20.704 70.6219 21.472C70.6219 22.224 70.7739 22.904 71.0779 23.512C71.3979 24.104 71.8299 24.568 72.3739 24.904C72.9179 25.24 73.5499 25.408 74.2699 25.408ZM90.6701 28.288C89.7261 28.288 88.8541 28.104 88.0541 27.736C87.2701 27.352 86.6461 26.808 86.1821 26.104L86.4941 25.48V28H83.5421V9.832H86.6861V17.536L86.2061 16.888C86.6541 16.184 87.2621 15.64 88.0301 15.256C88.7981 14.856 89.6861 14.656 90.6941 14.656C91.9261 14.656 93.0381 14.96 94.0301 15.568C95.0221 16.176 95.8061 16.992 96.3821 18.016C96.9741 19.04 97.2701 20.192 97.2701 21.472C97.2701 22.736 96.9821 23.888 96.4061 24.928C95.8301 25.968 95.0461 26.792 94.0541 27.4C93.0621 27.992 91.9341 28.288 90.6701 28.288ZM90.3101 25.408C91.0301 25.408 91.6701 25.24 92.2301 24.904C92.7901 24.568 93.2221 24.104 93.5261 23.512C93.8461 22.92 94.0061 22.24 94.0061 21.472C94.0061 20.704 93.8461 20.032 93.5261 19.456C93.2221 18.864 92.7901 18.4 92.2301 18.064C91.6701 17.712 91.0301 17.536 90.3101 17.536C89.6221 17.536 88.9981 17.704 88.4381 18.04C87.8941 18.376 87.4621 18.848 87.1421 19.456C86.8381 20.048 86.6861 20.72 86.6861 21.472C86.6861 22.24 86.8381 22.92 87.1421 23.512C87.4621 24.104 87.8941 24.568 88.4381 24.904C88.9981 25.24 89.6221 25.408 90.3101 25.408ZM99.6671 28V14.944H102.811V28H99.6671ZM99.6671 13.48V10.12H102.811V13.48H99.6671ZM105.978 28V10.12H111.81C113.698 10.12 115.338 10.504 116.73 11.272C118.138 12.024 119.226 13.072 119.994 14.416C120.762 15.744 121.146 17.288 121.146 19.048C121.146 20.792 120.762 22.344 119.994 23.704C119.226 25.048 118.138 26.104 116.73 26.872C115.338 27.624 113.698 28 111.81 28H105.978ZM109.242 25.12H111.882C113.098 25.12 114.146 24.872 115.026 24.376C115.922 23.864 116.618 23.16 117.114 22.264C117.61 21.352 117.858 20.28 117.858 19.048C117.858 17.8 117.61 16.728 117.114 15.832C116.618 14.936 115.922 14.24 115.026 13.744C114.146 13.248 113.098 13 111.882 13H109.242V25.12ZM129.864 28.288C128.584 28.288 127.416 27.992 126.36 27.4C125.32 26.808 124.488 26 123.864 24.976C123.256 23.952 122.952 22.784 122.952 21.472C122.952 20.16 123.256 18.992 123.864 17.968C124.488 16.944 125.32 16.136 126.36 15.544C127.4 14.952 128.568 14.656 129.864 14.656C131.144 14.656 132.304 14.952 133.344 15.544C134.384 16.136 135.208 16.944 135.816 17.968C136.44 18.976 136.752 20.144 136.752 21.472C136.752 22.784 136.44 23.952 135.816 24.976C135.192 26 134.36 26.808 133.32 27.4C132.28 27.992 131.128 28.288 129.864 28.288ZM129.864 25.408C130.568 25.408 131.184 25.24 131.712 24.904C132.256 24.568 132.68 24.104 132.984 23.512C133.304 22.904 133.464 22.224 133.464 21.472C133.464 20.704 133.304 20.032 132.984 19.456C132.68 18.864 132.256 18.4 131.712 18.064C131.184 17.712 130.568 17.536 129.864 17.536C129.144 17.536 128.512 17.712 127.968 18.064C127.424 18.4 126.992 18.864 126.672 19.456C126.368 20.032 126.216 20.704 126.216 21.472C126.216 22.224 126.368 22.904 126.672 23.512C126.992 24.104 127.424 24.568 127.968 24.904C128.512 25.24 129.144 25.408 129.864 25.408ZM145.424 28.288C144.128 28.288 142.96 27.992 141.92 27.4C140.896 26.792 140.088 25.976 139.496 24.952C138.904 23.912 138.608 22.744 138.608 21.448C138.608 20.152 138.904 18.992 139.496 17.968C140.088 16.944 140.896 16.136 141.92 15.544C142.96 14.952 144.128 14.656 145.424 14.656C146.352 14.656 147.216 14.824 148.016 15.16C148.816 15.48 149.504 15.928 150.08 16.504C150.672 17.064 151.096 17.736 151.352 18.52L148.592 19.72C148.352 19.064 147.944 18.536 147.368 18.136C146.808 17.736 146.16 17.536 145.424 17.536C144.736 17.536 144.12 17.704 143.576 18.04C143.048 18.376 142.632 18.84 142.328 19.432C142.024 20.024 141.872 20.704 141.872 21.472C141.872 22.24 142.024 22.92 142.328 23.512C142.632 24.104 143.048 24.568 143.576 24.904C144.12 25.24 144.736 25.408 145.424 25.408C146.176 25.408 146.832 25.208 147.392 24.808C147.952 24.408 148.352 23.872 148.592 23.2L151.352 24.448C151.096 25.184 150.68 25.848 150.104 26.44C149.528 27.016 148.84 27.472 148.04 27.808C147.24 28.128 146.368 28.288 145.424 28.288ZM158.705 28.288C157.313 28.288 156.097 27.96 155.057 27.304C154.033 26.632 153.329 25.728 152.945 24.592L155.297 23.464C155.633 24.2 156.097 24.776 156.689 25.192C157.297 25.608 157.969 25.816 158.705 25.816C159.281 25.816 159.737 25.688 160.073 25.432C160.409 25.176 160.577 24.84 160.577 24.424C160.577 24.168 160.505 23.96 160.361 23.8C160.233 23.624 160.049 23.48 159.809 23.368C159.585 23.24 159.337 23.136 159.065 23.056L156.929 22.456C155.825 22.136 154.985 21.648 154.409 20.992C153.849 20.336 153.569 19.56 153.569 18.664C153.569 17.864 153.769 17.168 154.169 16.576C154.585 15.968 155.153 15.496 155.873 15.16C156.609 14.824 157.449 14.656 158.393 14.656C159.625 14.656 160.713 14.952 161.657 15.544C162.601 16.136 163.273 16.968 163.673 18.04L161.273 19.168C161.049 18.576 160.673 18.104 160.145 17.752C159.617 17.4 159.025 17.224 158.369 17.224C157.841 17.224 157.425 17.344 157.121 17.584C156.817 17.824 156.665 18.136 156.665 18.52C156.665 18.76 156.729 18.968 156.857 19.144C156.985 19.32 157.161 19.464 157.385 19.576C157.625 19.688 157.897 19.792 158.201 19.888L160.289 20.512C161.361 20.832 162.185 21.312 162.761 21.952C163.353 22.592 163.649 23.376 163.649 24.304C163.649 25.088 163.441 25.784 163.025 26.392C162.609 26.984 162.033 27.448 161.297 27.784C160.561 28.12 159.697 28.288 158.705 28.288Z" fill="white"/>
<defs>
<filter id="filter0_dd_1_3" x="0" y="0" width="38" height="38" filterUnits="userSpaceOnUse" color-interpolation-filters="sRGB">
<feFlood flood-opacity="0" result="BackgroundImageFix"/>
<feColorMatrix in="SourceAlpha" type="matrix" values="0 0 0 0 0 0 0 0 0 0 0 0 0 0 0 0 0 0 127 0" result="hardAlpha"/>
<feOffset dy="1"/>
<feGaussianBlur stdDeviation="1"/>
<feColorMatrix type="matrix" values="0 0 0 0 0.0627451 0 0 0 0 0.0941176 0 0 0 0 0.156863 0 0 0 0.06 0"/>
<feBlend mode="normal" in2="BackgroundImageFix" result="effect1_dropShadow_1_3"/>
<feColorMatrix in="SourceAlpha" type="matrix" values="0 0 0 0 0 0 0 0 0 0 0 0 0 0 0 0 0 0 127 0" result="hardAlpha"/>
<feOffset dy="1"/>
<feGaussianBlur stdDeviation="1.5"/>
<feColorMatrix type="matrix" values="0 0 0 0 0.0627451 0 0 0 0 0.0941176 0 0 0 0 0.156863 0 0 0 0.1 0"/>
<feBlend mode="normal" in2="effect1_dropShadow_1_3" result="effect2_dropShadow_1_3"/>
<feBlend mode="normal" in="SourceGraphic" in2="effect2_dropShadow_1_3" result="shape"/>
</filter>
<linearGradient id="paint0_linear_1_3" x1="19" y1="2" x2="19" y2="34" gradientUnits="userSpaceOnUse">
<stop stop-color="white"/>
<stop offset="1" stop-color="#D0D5DD"/>
</linearGradient>
<linearGradient id="paint1_linear_1_3" x1="10.1989" y1="24.2137" x2="27.8347" y2="6.57788" gradientUnits="userSpaceOnUse">
<stop stop-color="#0076C1"/>
<stop offset="0.0737" stop-color="#0B82C6"/>
<stop offset="0.2766" stop-color="#269ED3"/>
<stop offset="0.4546" stop-color="#36AFDA"/>
<stop offset="0.587" stop-color="#3CB5DD"/>
</linearGradient>
<linearGradient id="paint2_linear_1_3" x1="10.1388" y1="24.2537" x2="27.8274" y2="6.56509" gradientUnits="userSpaceOnUse">
<stop stop-color="#00A482"/>
<stop offset="1" stop-color="#79DD83"/>
</linearGradient>
<linearGradient id="paint3_linear_1_3" x1="24.8608" y1="13.5072" x2="28.5287" y2="10.1131" gradientUnits="userSpaceOnUse">
<stop stop-color="#00A482"/>
<stop offset="1" stop-color="#79DD83"/>
</linearGradient>
</defs>
</svg>
